<svg id="visual" viewBox="0 0 900 450" width="900" height="450" xmlns="http://www.w3.org/2000/svg" xmlns:xlink="http://www.w3.org/1999/xlink" version="1.1"><rect x="0" y="0" width="900" height="450" fill="#FFFFFF"></rect><defs><linearGradient id="grad1_0" x1="50%" y1="0%" x2="100%" y2="100%"><stop offset="10%" stop-color="#2d605f" stop-opacity="1"></stop><stop offset="90%" stop-color="#2d605f" stop-opacity="1"></stop></linearGradient></defs><defs><linearGradient id="grad1_1" x1="50%" y1="0%" x2="100%" y2="100%"><stop offset="10%" stop-color="#2d605f" stop-opacity="1"></stop><stop offset="90%" stop-color="#ffffff" stop-opacity="1"></stop></linearGradient></defs><defs><linearGradient id="grad2_0" x1="0%" y1="0%" x2="50%" y2="100%"><stop offset="10%" stop-color="#2d605f" stop-opacity="1"></stop><stop offset="90%" stop-color="#2d605f" stop-opacity="1"></stop></linearGradient></defs><defs><linearGradient id="grad2_1" x1="0%" y1="0%" x2="50%" y2="100%"><stop offset="10%" stop-color="#ffffff" stop-opacity="1"></stop><stop offset="90%" stop-color="#2d605f" stop-opacity="1"></stop></linearGradient></defs><g transform="translate(900, 0)"><path d="M0 225C-34.6 227.6 -69.3 230.2 -86.1 207.9C-102.9 185.6 -102 138.3 -113.1 113.1C-124.3 88 -147.5 84.8 -168.1 69.6C-188.8 54.5 -206.9 27.2 -225 0L0 0Z" fill="#94acab"></path><path d="M0 112.5C-17.3 113.8 -34.6 115.1 -43.1 103.9C-51.5 92.8 -51 69.2 -56.6 56.6C-62.1 44 -73.7 42.4 -84.1 34.8C-94.4 27.2 -103.5 13.6 -112.5 0L0 0Z" fill="#2d605f"></path></g><g transform="translate(0, 450)"><path d="M0 -225C23.1 -206.2 46.1 -187.5 74.2 -179.2C102.4 -171 135.5 -173.2 159.1 -159.1C182.7 -145 196.6 -114.6 206 -85.3C215.4 -56.1 220.2 -28.1 225 0L0 0Z" fill="#94acab"></path><path d="M0 -112.5C11.5 -103.1 23.1 -93.7 37.1 -89.6C51.2 -85.5 67.8 -86.6 79.5 -79.5C91.3 -72.5 98.3 -57.3 103 -42.7C107.7 -28.1 110.1 -14 112.5 0L0 0Z" fill="#2d605f"></path></g></svg>