<svg id="Layer_1" data-name="Layer 1" xmlns="http://www.w3.org/2000/svg" viewBox="0 0 777.81 289.28"><defs><style>.cls-1{fill:none;stroke:#fff;stroke-miterlimit:10;stroke-width:11px;}.cls-2{font-size:111.5px;letter-spacing:-0.01em;}.cls-2,.cls-4{fill:#fff;font-family:LEMONMILK-Regular, LEMON MILK;}.cls-3{letter-spacing:0em;}.cls-4{font-size:19.96px;}.cls-5{letter-spacing:-0.2em;}.cls-6{letter-spacing:-0.04em;}.cls-7{letter-spacing:0em;}.cls-8{letter-spacing:-0.1em;}.cls-9{letter-spacing:0.01em;}</style></defs><ellipse class="cls-1" cx="147.15" cy="144.64" rx="71.14" ry="73.02"/><path class="cls-1" d="M177.54,222.54v-60c0-4.55.87-5.44,8.6-5.92s71.24-2.67,106.42,44.73" transform="translate(-30.4 -150.92)"/><path class="cls-1" d="M182.45,368.58v60c0,4.55-.87,5.44-8.59,5.92s-71.24,2.68-106.43-44.72" transform="translate(-30.4 -150.92)"/><ellipse class="cls-1" cx="275.79" cy="71.32" rx="21.38" ry="21.94"/><ellipse class="cls-1" cx="26.88" cy="221.91" rx="21.38" ry="21.94"/><ellipse class="cls-1" cx="147.15" cy="144.64" rx="21.38" ry="21.94"/><text class="cls-2" transform="translate(240.11 230.17)">B<tspan class="cls-3" x="69.74" y="0">AIM </tspan></text><text class="cls-4" transform="translate(247.86 277.51)">BIZNESIN <tspan class="cls-5" x="97.95" y="0">A</tspan><tspan x="109.43" y="0">V</tspan><tspan class="cls-6" x="124.53" y="0">T</tspan><tspan class="cls-7" x="135.56" y="0">OM</tspan><tspan class="cls-8" x="171.73" y="0">a</tspan><tspan x="185.16" y="0">t</tspan><tspan class="cls-9" x="196.96" y="0">L</tspan><tspan x="208.53" y="0">AŞdırma VƏ inkişaf mərkəzi</tspan></text></svg>