<svg width="2827" height="746" viewBox="0 0 2827 746" fill="none" xmlns="http://www.w3.org/2000/svg">
<g clip-path="url(#clip0_44_8)">
<path d="M0 0C932.91 0 1865.82 0 2827 0C2827 246.51 2827 493.02 2827 747C1894.09 747 961.18 747 0 747C0 500.49 0 253.98 0 0Z" fill="url(#paint0_linear_44_8)"/>
<path d="M315.243 -215.752C556.555 -457.064 797.866 -698.376 1046.49 -947C1240.78 -752.711 1435.07 -558.422 1635.25 -358.245C1393.93 -116.933 1152.62 124.378 903.998 373.002C709.709 178.713 515.42 -15.5759 315.243 -215.752Z" fill="#028C77"/>
<path d="M-153 -144.092C88.3116 -385.404 329.623 -626.715 578.247 -875.34C772.536 -681.051 966.825 -486.762 1167 -286.585C925.69 -45.2731 684.379 196.038 435.755 444.662C241.466 250.373 47.1766 56.0845 -153 -144.092Z" fill="#0DAD94"/>
<path d="M2446.82 516.248C2688.13 274.936 2929.44 33.6243 3178.07 -215C3372.36 -20.7107 3566.65 173.578 3766.82 373.755C3525.51 615.067 3284.2 856.378 3035.57 1105C2841.29 910.713 2647 716.424 2446.82 516.248Z" fill="#0DAD94"/>
<path d="M1635 1001.18C1876.31 759.869 2117.62 518.557 2366.25 269.933C2560.54 464.222 2754.83 658.511 2955 858.688C2713.69 1100 2472.38 1341.31 2223.75 1589.93C2029.47 1395.65 1835.18 1201.36 1635 1001.18Z" fill="#028C77"/>
</g>
<defs>
<linearGradient id="paint0_linear_44_8" x1="0" y1="0" x2="2827" y2="747" gradientUnits="userSpaceOnUse">
<stop stop-color="#04E0BF"/>
<stop offset="1" stop-color="#01574A"/>
</linearGradient>
<clipPath id="clip0_44_8">
<rect width="2827" height="747" fill="white"/>
</clipPath>
</defs>
</svg>
